<svg xmlns="http://www.w3.org/2000/svg" width="24" height="24" viewBox="0 0 24 24">
    <g fill="none" fill-rule="evenodd" stroke-linecap="round" stroke-linejoin="round">
        <g stroke="#E0E0E0">
            <g>
                <g>
                    <g>
                        <g>
                            <g>
                                <path d="M16.73 3c-1.35 0-2.702.53-3.73 1.593L12 5.64l-1-1.037c-2.054-2.128-5.404-2.128-7.459 0-2.055 2.127-2.055 5.58 0 7.707 2.662 2.758 5.328 5.507 7.99 8.264.26.268.682.27.944.005l.005-.005 7.98-8.274c2.052-2.13 2.055-5.58 0-7.708C19.432 3.529 18.08 3 16.73 3" transform="translate(-614 -1049) translate(360 583) translate(0 166) translate(0 1) translate(9 299) translate(245)"/>
                            </g>
                        </g>
                    </g>
                </g>
            </g>
        </g>
    </g>
</svg>
