<svg xmlns="http://www.w3.org/2000/svg" width="16" height="16" viewBox="0 0 16 16">
    <g fill="none" fill-rule="evenodd">
        <g fill="#FFDF00">
            <path d="M8 12.438l-4.049 2.098c-.245.127-.547.031-.674-.214-.05-.097-.067-.208-.048-.316L4 9.573.74 6.44c-.2-.192-.206-.508-.015-.707.077-.08.18-.133.29-.149l4.513-.646L7.553.893c.124-.247.424-.347.67-.223.097.048.176.126.224.223l2.025 4.045 4.513.646c.274.04.464.293.424.566-.015.11-.068.212-.148.29L12 9.573l.771 4.433c.048.272-.134.531-.407.579-.107.018-.218.001-.315-.05L8 12.439z" transform="translate(-597 -9400) translate(360 9300) translate(20 58) translate(155 30) translate(62 12)"/>
        </g>
    </g>
</svg>
