<svg xmlns="http://www.w3.org/2000/svg" width="14" height="14" viewBox="0 0 14 14">
    <g fill="none" fill-rule="evenodd">
        <g fill="#CCC">
            <g>
                <g>
                    <g>
                        <path d="M7 10.553l-3.433 1.725c-.247.124-.547.025-.671-.222-.049-.096-.065-.206-.046-.313l.65-3.62L.769 5.578C.567 5.39.556 5.073.744 4.87c.078-.084.183-.138.297-.154l3.796-.527L6.556.86c.126-.245.428-.341.673-.214.093.047.168.122.215.214l1.72 3.33 3.795.527c.274.038.464.29.426.564-.015.114-.07.219-.154.297L10.5 8.123l.65 3.62c.048.272-.132.532-.404.58-.107.02-.216.004-.313-.045L7 10.553z" transform="translate(-360 -9489) translate(360 9300) translate(0 172) translate(0 17)"/>
                    </g>
                </g>
            </g>
        </g>
    </g>
</svg>
